<?xml version="1.0" encoding="UTF-8" standalone="no"?>
<!-- Created with Inkscape (http://www.inkscape.org/) -->

<svg
   xmlns:svg="http://www.w3.org/2000/svg"
   xmlns="http://www.w3.org/2000/svg"
   xmlns:xlink="http://www.w3.org/1999/xlink"
   version="1.1"
   width="48"
   height="48"
   id="svg3397">
  <defs
     id="defs3399">
    <linearGradient
       id="linearGradient2707">
      <stop
         id="stop2709"
         style="stop-color:#eeeeec;stop-opacity:1"
         offset="0" />
      <stop
         id="stop2711"
         style="stop-color:#eeeeec;stop-opacity:0"
         offset="1" />
    </linearGradient>
    <linearGradient
       x1="18"
       y1="39"
       x2="18"
       y2="45.780262"
       id="linearGradient3780"
       xlink:href="#linearGradient2707"
       gradientUnits="userSpaceOnUse"
       gradientTransform="matrix(1,0,0,0.833333,9.7317314e-7,6.4898544)" />
    <linearGradient
       x1="18"
       y1="39"
       x2="18"
       y2="45.780262"
       id="linearGradient3836"
       xlink:href="#linearGradient2707"
       gradientUnits="userSpaceOnUse"
       gradientTransform="matrix(1,0,0,0.833333,9.7317314e-7,6.4898544)" />
    <linearGradient
       id="linearGradient3734">
      <stop
         id="stop3736"
         style="stop-color:black;stop-opacity:1"
         offset="0" />
      <stop
         id="stop3738"
         style="stop-color:black;stop-opacity:0"
         offset="1" />
    </linearGradient>
    <radialGradient
       cx="12.046875"
       cy="10.046875"
       r="9.546875"
       fx="12.046875"
       fy="10.046875"
       id="radialGradient4275"
       xlink:href="#linearGradient3734"
       gradientUnits="userSpaceOnUse"
       gradientTransform="matrix(2.4091653,0,0,0.7855974,-5.0229128,32.6079)" />
  </defs>
  <path
     d="m 47,40.500699 a 23,7.5 0 0 1 -45.9999998,0 23,7.5 0 1 1 45.9999998,0 z"
     id="path6446"
     style="opacity:0.4;fill:url(#radialGradient4275);fill-opacity:1;stroke:none;display:inline" />
  <g
     transform="translate(-9.0125695,-9.000183)"
     id="g3838">
    <path
       d="m 46.528917,39.003188 a 5.0033537,2.4982883 0 1 1 -10.006707,0 5.0033537,2.4982883 0 1 1 10.006707,0 z"
       id="path3840"
       style="fill:#ddca10;fill-opacity:1;fill-rule:evenodd;stroke:#7d6c0f;stroke-width:1.0000006;stroke-miterlimit:4;stroke-opacity:1;stroke-dasharray:none" />
    <path
       d="m 46.538557,37.009618 a 5.0033537,2.4982883 0 1 1 -10.006707,0 5.0033537,2.4982883 0 1 1 10.006707,0 z"
       id="path3842"
       style="fill:#ddca10;fill-opacity:1;fill-rule:evenodd;stroke:#7d6c0f;stroke-width:1.0000006;stroke-miterlimit:4;stroke-opacity:1;stroke-dasharray:none" />
    <path
       d="m 46.538557,35.009628 a 5.0033537,2.4982883 0 1 1 -10.006707,0 5.0033537,2.4982883 0 1 1 10.006707,0 z"
       id="path3844"
       style="fill:#ddca10;fill-opacity:1;fill-rule:evenodd;stroke:#7d6c0f;stroke-width:1.0000006;stroke-miterlimit:4;stroke-opacity:1;stroke-dasharray:none" />
    <path
       d="m 46.525987,33.004698 a 5.0033537,2.4982883 0 1 1 -10.006707,0 5.0033537,2.4982883 0 1 1 10.006707,0 z"
       id="path3846"
       style="fill:#ddca10;fill-opacity:1;fill-rule:evenodd;stroke:#7d6c0f;stroke-width:1.0000006;stroke-miterlimit:4;stroke-opacity:1;stroke-dasharray:none" />
    <path
       d="m 46.538557,31.003205 a 5.0033537,2.4982883 0 1 1 -10.006707,0 5.0033537,2.4982883 0 1 1 10.006707,0 z"
       id="path3848"
       style="fill:#ddca10;fill-opacity:1;fill-rule:evenodd;stroke:#7d6c0f;stroke-width:1.0000006;stroke-miterlimit:4;stroke-opacity:1;stroke-dasharray:none" />
    <path
       d="m 46.538557,29.008121 a 5.0033537,2.4982883 0 1 1 -10.006707,0 5.0033537,2.4982883 0 1 1 10.006707,0 z"
       id="path3850"
       style="fill:#ddca10;fill-opacity:1;fill-rule:evenodd;stroke:#7d6c0f;stroke-width:1.0000006;stroke-miterlimit:4;stroke-opacity:1;stroke-dasharray:none" />
    <path
       d="m 46.525987,27.003191 a 5.0033537,2.4982883 0 1 1 -10.006707,0 5.0033537,2.4982883 0 1 1 10.006707,0 z"
       id="path3852"
       style="fill:#ddca10;fill-opacity:1;fill-rule:evenodd;stroke:#7d6c0f;stroke-width:1.0000006;stroke-miterlimit:4;stroke-opacity:1;stroke-dasharray:none" />
    <path
       d="m 46.538557,25.001697 a 5.0033537,2.4982883 0 1 1 -10.006707,0 5.0033537,2.4982883 0 1 1 10.006707,0 z"
       id="path3854"
       style="fill:#ddca10;fill-opacity:1;fill-rule:evenodd;stroke:#7d6c0f;stroke-width:1.0000006;stroke-miterlimit:4;stroke-opacity:1;stroke-dasharray:none" />
    <path
       d="m 46.538557,23.001697 a 5.0033537,2.4982883 0 1 1 -10.006707,0 5.0033537,2.4982883 0 1 1 10.006707,0 z"
       id="path3856"
       style="fill:#ddc910;fill-opacity:1;fill-rule:evenodd;stroke:#7d6c0f;stroke-width:1.0000006;stroke-miterlimit:4;stroke-opacity:1;stroke-dasharray:none" />
    <path
       d="m 46.519277,20.998274 a 5.0033537,2.4982883 0 1 1 -10.006707,0 5.0033537,2.4982883 0 1 1 10.006707,0 z"
       id="path3858"
       style="fill:#fce94f;fill-opacity:1;fill-rule:evenodd;stroke:#8c7200;stroke-width:1.0000006;stroke-miterlimit:4;stroke-opacity:1;stroke-dasharray:none" />
    <path
       d="m 45.509639,20.996769 a 4.0038971,1.4967846 0 1 1 -8.007794,0 4.0038971,1.4967846 0 1 1 8.007794,0 z"
       id="path3860"
       style="opacity:0.3;fill:none;stroke:white;stroke-width:1.00000036;stroke-miterlimit:4;stroke-opacity:1;stroke-dasharray:none" />
  </g>
  <g
     transform="translate(-2.0125695,-1.000183)"
     id="g2986">
    <path
       d="m 46.528917,39.003188 a 5.0033537,2.4982883 0 1 1 -10.006707,0 5.0033537,2.4982883 0 1 1 10.006707,0 z"
       id="path2773"
       style="fill:#ddca10;fill-opacity:1;fill-rule:evenodd;stroke:#7d6c0f;stroke-width:1.0000006;stroke-miterlimit:4;stroke-opacity:1;stroke-dasharray:none" />
    <path
       d="m 46.538557,37.009618 a 5.0033537,2.4982883 0 1 1 -10.006707,0 5.0033537,2.4982883 0 1 1 10.006707,0 z"
       id="path2777"
       style="fill:#ddca10;fill-opacity:1;fill-rule:evenodd;stroke:#7d6c0f;stroke-width:1.0000006;stroke-miterlimit:4;stroke-opacity:1;stroke-dasharray:none" />
    <path
       d="m 46.538557,35.009628 a 5.0033537,2.4982883 0 1 1 -10.006707,0 5.0033537,2.4982883 0 1 1 10.006707,0 z"
       id="path2781"
       style="fill:#ddca10;fill-opacity:1;fill-rule:evenodd;stroke:#7d6c0f;stroke-width:1.0000006;stroke-miterlimit:4;stroke-opacity:1;stroke-dasharray:none" />
    <path
       d="m 46.525987,33.004698 a 5.0033537,2.4982883 0 1 1 -10.006707,0 5.0033537,2.4982883 0 1 1 10.006707,0 z"
       id="path2785"
       style="fill:#ddca10;fill-opacity:1;fill-rule:evenodd;stroke:#7d6c0f;stroke-width:1.0000006;stroke-miterlimit:4;stroke-opacity:1;stroke-dasharray:none" />
    <path
       d="m 46.538557,31.003205 a 5.0033537,2.4982883 0 1 1 -10.006707,0 5.0033537,2.4982883 0 1 1 10.006707,0 z"
       id="path2789"
       style="fill:#ddca10;fill-opacity:1;fill-rule:evenodd;stroke:#7d6c0f;stroke-width:1.0000006;stroke-miterlimit:4;stroke-opacity:1;stroke-dasharray:none" />
    <path
       d="m 46.538557,29.008121 a 5.0033537,2.4982883 0 1 1 -10.006707,0 5.0033537,2.4982883 0 1 1 10.006707,0 z"
       id="path2797"
       style="fill:#ddca10;fill-opacity:1;fill-rule:evenodd;stroke:#7d6c0f;stroke-width:1.0000006;stroke-miterlimit:4;stroke-opacity:1;stroke-dasharray:none" />
    <path
       d="m 46.525987,27.003191 a 5.0033537,2.4982883 0 1 1 -10.006707,0 5.0033537,2.4982883 0 1 1 10.006707,0 z"
       id="path2799"
       style="fill:#ddca10;fill-opacity:1;fill-rule:evenodd;stroke:#7d6c0f;stroke-width:1.0000006;stroke-miterlimit:4;stroke-opacity:1;stroke-dasharray:none" />
    <path
       d="m 46.538557,25.001697 a 5.0033537,2.4982883 0 1 1 -10.006707,0 5.0033537,2.4982883 0 1 1 10.006707,0 z"
       id="path2801"
       style="fill:#ddca10;fill-opacity:1;fill-rule:evenodd;stroke:#7d6c0f;stroke-width:1.0000006;stroke-miterlimit:4;stroke-opacity:1;stroke-dasharray:none" />
    <path
       d="m 46.538557,23.001697 a 5.0033537,2.4982883 0 1 1 -10.006707,0 5.0033537,2.4982883 0 1 1 10.006707,0 z"
       id="path2809"
       style="fill:#ddc910;fill-opacity:1;fill-rule:evenodd;stroke:#7d6c0f;stroke-width:1.0000006;stroke-miterlimit:4;stroke-opacity:1;stroke-dasharray:none" />
    <path
       d="m 46.519277,20.998274 a 5.0033537,2.4982883 0 1 1 -10.006707,0 5.0033537,2.4982883 0 1 1 10.006707,0 z"
       id="path2793"
       style="fill:#fce94f;fill-opacity:1;fill-rule:evenodd;stroke:#8c7200;stroke-width:1.0000006;stroke-miterlimit:4;stroke-opacity:1;stroke-dasharray:none" />
    <path
       d="m 45.509639,20.996769 a 4.0038971,1.4967846 0 1 1 -8.007794,0 4.0038971,1.4967846 0 1 1 8.007794,0 z"
       id="path2795"
       style="opacity:0.3;fill:none;stroke:white;stroke-width:1.00000036;stroke-miterlimit:4;stroke-opacity:1;stroke-dasharray:none" />
  </g>
  <g
     transform="translate(2.0001589,-1)"
     id="g2955">
    <path
       d="m 1.499841,33.478934 24.000325,0 0,6.025232 -24.000325,0 0,-6.025232 z"
       id="path2321"
       style="fill:#4f7f21;fill-opacity:1;fill-rule:evenodd;stroke:#2e5c02;stroke-width:0.99999976;stroke-linejoin:round;stroke-miterlimit:4;stroke-opacity:1" />
    <path
       d="m 4.325883,27.490549 20.27169,0 0.902432,6.009461 -24.000006,0 2.825884,-6.009461 z"
       id="path2323"
       style="fill:#59af05;fill-opacity:1;fill-rule:evenodd;stroke:#2e5c02;stroke-width:1;stroke-linejoin:round;stroke-miterlimit:4;stroke-opacity:1" />
    <rect
       width="23"
       height="1"
       x="2.0001378"
       y="37.026531"
       id="rect2325"
       style="fill:#2e5c02;fill-opacity:1;fill-rule:evenodd;stroke:none" />
    <rect
       width="23"
       height="1"
       x="2.0001378"
       y="35.026531"
       id="rect2327"
       style="fill:#2e5c02;fill-opacity:1;fill-rule:evenodd;stroke:none" />
    <path
       d="m 4.937599,28.542003 -1.96875,3.9375 21.34375,0 -0.59375,-3.9375 -18.78125,0 z"
       id="path2329"
       style="opacity:0.25;fill:none;stroke:white;stroke-width:1;stroke-miterlimit:4;stroke-opacity:1" />
    <rect
       width="4.9373136"
       height="6.1093535"
       x="11.53135"
       y="33.463902"
       id="rect2341"
       style="fill:#eeeeec;fill-opacity:1;fill-rule:evenodd;stroke:#555753;stroke-width:1.00000012;stroke-miterlimit:4;stroke-opacity:1;stroke-dasharray:none" />
    <path
       d="m 19.000001,30.489859 a 5.0000015,1.4999994 0 1 1 -10.0000027,0 5.0000015,1.4999994 0 1 1 10.0000027,0 z"
       id="path2746"
       style="fill:#2e5c02;fill-opacity:1;fill-rule:evenodd;stroke:none" />
    <path
       d="m 12.500001,27.485562 -1,5.637161 0,6.37143 5,0 0,-6.425371 -1.09375,-5.58322 -2.90625,0 z"
       id="path2715"
       style="fill:#d3d7cf;fill-opacity:1;fill-rule:evenodd;stroke:#555753;stroke-width:1.00000012;stroke-miterlimit:4;stroke-opacity:1;stroke-dasharray:none" />
    <path
       d="m 6.9999965,31.489856 a 1.5156056,0.49999981 0 1 1 -3.0312111,0 1.5156056,0.49999981 0 1 1 3.0312111,0 z"
       id="path2748"
       style="fill:#2e5c02;fill-opacity:1;fill-rule:evenodd;stroke:none" />
    <path
       d="m 24,31.489856 a 1.4999998,0.49999981 0 1 1 -2.999999,0 1.4999998,0.49999981 0 1 1 2.999999,0 z"
       id="path2750"
       style="fill:#2e5c02;fill-opacity:1;fill-rule:evenodd;stroke:none" />
    <path
       d="m 23,29.489856 a 1.4999998,0.49999981 0 1 1 -2.999999,0 1.4999998,0.49999981 0 1 1 2.999999,0 z"
       id="path2752"
       style="fill:#2e5c02;fill-opacity:1;fill-rule:evenodd;stroke:none" />
    <path
       d="m 8.0000013,29.489856 a 1.4999998,0.49999981 0 1 1 -2.9999995,0 1.4999998,0.49999981 0 1 1 2.9999995,0 z"
       id="path2754"
       style="fill:#2e5c02;fill-opacity:1;fill-rule:evenodd;stroke:none" />
  </g>
  <g
     transform="translate(0,-1)"
     id="g2999">
    <path
       d="m 41.519277,41.996758 a 5.0033537,2.4982883 0 1 1 -10.006707,0 5.0033537,2.4982883 0 1 1 10.006707,0 z"
       id="path2413"
       style="fill:#dcc610;fill-opacity:1;fill-rule:evenodd;stroke:#7d6c0f;stroke-width:1.0000006;stroke-miterlimit:4;stroke-opacity:1;stroke-dasharray:none" />
    <path
       d="m 41.528917,40.003188 a 5.0033537,2.4982883 0 1 1 -10.006707,0 5.0033537,2.4982883 0 1 1 10.006707,0 z"
       id="path2417"
       style="fill:#dcc610;fill-opacity:1;fill-rule:evenodd;stroke:#7d6c0f;stroke-width:1.0000006;stroke-miterlimit:4;stroke-opacity:1;stroke-dasharray:none" />
    <path
       d="m 41.528917,38.003198 a 5.0033537,2.4982883 0 1 1 -10.006707,0 5.0033537,2.4982883 0 1 1 10.006707,0 z"
       id="path2421"
       style="fill:#dcc610;fill-opacity:1;fill-rule:evenodd;stroke:#7d6c0f;stroke-width:1.0000006;stroke-miterlimit:4;stroke-opacity:1;stroke-dasharray:none" />
    <path
       d="m 41.516347,35.998268 a 5.0033537,2.4982883 0 1 1 -10.006707,0 5.0033537,2.4982883 0 1 1 10.006707,0 z"
       id="path2425"
       style="fill:#dcc610;fill-opacity:1;fill-rule:evenodd;stroke:#7d6c0f;stroke-width:1.0000006;stroke-miterlimit:4;stroke-opacity:1;stroke-dasharray:none" />
    <path
       d="m 41.528917,33.996778 a 5.0033537,2.4982883 0 1 1 -10.006707,0 5.0033537,2.4982883 0 1 1 10.006707,0 z"
       id="path2429"
       style="fill:#dcc610;fill-opacity:1;fill-rule:evenodd;stroke:#7d6c0f;stroke-width:1.0000006;stroke-miterlimit:4;stroke-opacity:1;stroke-dasharray:none" />
    <path
       d="m 41.509637,31.996778 a 5.0033537,2.4982883 0 1 1 -10.006707,0 5.0033537,2.4982883 0 1 1 10.006707,0 z"
       id="path2761"
       style="fill:#fce94f;fill-opacity:1;fill-rule:evenodd;stroke:#8c7200;stroke-width:1.0000006;stroke-miterlimit:4;stroke-opacity:1;stroke-dasharray:none" />
    <path
       d="m 40.507799,31.996772 a 4.0038971,1.4967846 0 1 1 -8.007794,0 4.0038971,1.4967846 0 1 1 8.007794,0 z"
       id="path2763"
       style="opacity:0.3;fill:none;stroke:white;stroke-width:1.00000036;stroke-miterlimit:4;stroke-opacity:1;stroke-dasharray:none" />
  </g>
  <g
     transform="translate(2.0001589,-1)"
     id="g2969">
    <path
       d="m 5.491464,38.460922 24.008514,0 0,6.039078 -24.008514,0 0,-6.039078 z"
       id="rect2271"
       style="fill:#4f7f21;fill-opacity:1;fill-rule:evenodd;stroke:#2e5c02;stroke-width:0.99999958;stroke-linejoin:round;stroke-miterlimit:4;stroke-opacity:1" />
    <path
       d="m 7.450819,32.494875 20.208675,0 1.839885,5.993972 -23.999394,0 1.950834,-5.993972 z"
       id="path3816"
       style="fill:#57ae06;fill-opacity:1;fill-rule:evenodd;stroke:#2e5c02;stroke-width:0.99999964;stroke-linejoin:round;stroke-miterlimit:4;stroke-opacity:1" />
    <rect
       width="23"
       height="1"
       x="6.0000005"
       y="41.989853"
       id="rect2441"
       style="fill:#2e5c02;fill-opacity:1;fill-rule:evenodd;stroke:none" />
    <rect
       width="23.000002"
       height="1"
       x="6.0000005"
       y="39.989853"
       id="rect2443"
       style="fill:#2e5c02;fill-opacity:1;fill-rule:evenodd;stroke:none" />
    <path
       d="m 8.218751,33.521104 -1.28125,3.9375 21.15625,0 -1.21875,-3.9375 -18.65625,0 z"
       id="path2269"
       style="opacity:0.25;fill:none;stroke:white;stroke-width:1;stroke-miterlimit:4;stroke-opacity:1" />
    <path
       d="m 22.999992,35.489859 a 4.9999945,1.4999994 0 1 1 -9.999989,0 4.9999945,1.4999994 0 1 1 9.999989,0 z"
       id="path3837"
       style="fill:#2e5c02;fill-opacity:1;fill-rule:evenodd;stroke:none" />
    <path
       d="m 10.999998,36.474386 a 1.5156058,0.49999988 0 0 1 -3.0312116,0 1.5156058,0.49999988 0 1 1 3.0312116,0 z"
       id="path3839"
       style="fill:#2e5c02;fill-opacity:1;fill-rule:evenodd;stroke:none" />
    <path
       d="m 27,36.489856 a 1.4999998,0.49999981 0 1 1 -2.999999,0 1.4999998,0.49999981 0 1 1 2.999999,0 z"
       id="path3841"
       style="fill:#2e5c02;fill-opacity:1;fill-rule:evenodd;stroke:none" />
    <path
       d="m 16.500001,32.511162 -1,5.625214 0,6.357927 5,0 0,-6.411754 -1.09375,-5.571387 -2.90625,0 z"
       id="rect1372"
       style="fill:#d3d7cf;fill-opacity:1;fill-rule:evenodd;stroke:#555753;stroke-width:1.00000012;stroke-miterlimit:4;stroke-opacity:1;stroke-dasharray:none" />
    <rect
       width="4"
       height="5"
       x="16"
       y="38.989853"
       id="rect2721"
       style="fill:#888a85;fill-opacity:1;fill-rule:evenodd;stroke:none" />
    <rect
       width="4"
       height="5"
       x="16"
       y="38.989853"
       id="rect2673"
       style="fill:url(#linearGradient3780);fill-opacity:1;fill-rule:evenodd;stroke:none" />
    <path
       d="m 26,34.489856 a 1.4999998,0.49999981 0 1 1 -2.999999,0 1.4999998,0.49999981 0 1 1 2.999999,0 z"
       id="path2691"
       style="fill:#2e5c02;fill-opacity:1;fill-rule:evenodd;stroke:none" />
    <path
       d="m 12,34.489856 a 1.4999998,0.49999981 0 1 1 -2.9999992,0 1.4999998,0.49999981 0 1 1 2.9999992,0 z"
       id="path2693"
       style="fill:#2e5c02;fill-opacity:1;fill-rule:evenodd;stroke:none" />
  </g>
  <g
     transform="translate(2.0001589,-9)"
     id="g3782">
    <path
       d="m 1.499841,33.478934 24.000325,0 0,6.025232 -24.000325,0 0,-6.025232 z"
       id="path3784"
       style="fill:#4f7f21;fill-opacity:1;fill-rule:evenodd;stroke:#2e5c02;stroke-width:0.99999976;stroke-linejoin:round;stroke-miterlimit:4;stroke-opacity:1" />
    <path
       d="m 4.325883,27.490549 20.27169,0 0.902432,6.009461 -24.000006,0 2.825884,-6.009461 z"
       id="path3786"
       style="fill:#59af05;fill-opacity:1;fill-rule:evenodd;stroke:#2e5c02;stroke-width:1;stroke-linejoin:round;stroke-miterlimit:4;stroke-opacity:1" />
    <rect
       width="23"
       height="1"
       x="2.0001378"
       y="37.026531"
       id="rect3788"
       style="fill:#2e5c02;fill-opacity:1;fill-rule:evenodd;stroke:none" />
    <rect
       width="23"
       height="1"
       x="2.0001378"
       y="35.026531"
       id="rect3790"
       style="fill:#2e5c02;fill-opacity:1;fill-rule:evenodd;stroke:none" />
    <path
       d="m 4.937599,28.542003 -1.96875,3.9375 21.34375,0 -0.59375,-3.9375 -18.78125,0 z"
       id="path3792"
       style="opacity:0.25;fill:none;stroke:white;stroke-width:1;stroke-miterlimit:4;stroke-opacity:1" />
    <rect
       width="4.9373136"
       height="6.1093535"
       x="11.53135"
       y="33.463902"
       id="rect3794"
       style="fill:#eeeeec;fill-opacity:1;fill-rule:evenodd;stroke:#555753;stroke-width:1.00000012;stroke-miterlimit:4;stroke-opacity:1;stroke-dasharray:none" />
    <path
       d="m 19.000001,30.489859 a 5.0000015,1.4999994 0 1 1 -10.0000027,0 5.0000015,1.4999994 0 1 1 10.0000027,0 z"
       id="path3796"
       style="fill:#2e5c02;fill-opacity:1;fill-rule:evenodd;stroke:none" />
    <path
       d="m 12.500001,27.485562 -1,5.637161 0,6.37143 5,0 0,-6.425371 -1.09375,-5.58322 -2.90625,0 z"
       id="path3798"
       style="fill:#d3d7cf;fill-opacity:1;fill-rule:evenodd;stroke:#555753;stroke-width:1.00000012;stroke-miterlimit:4;stroke-opacity:1;stroke-dasharray:none" />
    <path
       d="m 6.9999965,31.489856 a 1.5156056,0.49999981 0 1 1 -3.0312111,0 1.5156056,0.49999981 0 1 1 3.0312111,0 z"
       id="path3800"
       style="fill:#2e5c02;fill-opacity:1;fill-rule:evenodd;stroke:none" />
    <path
       d="m 24,31.489856 a 1.4999998,0.49999981 0 1 1 -2.999999,0 1.4999998,0.49999981 0 1 1 2.999999,0 z"
       id="path3802"
       style="fill:#2e5c02;fill-opacity:1;fill-rule:evenodd;stroke:none" />
    <path
       d="m 23,29.489856 a 1.4999998,0.49999981 0 1 1 -2.999999,0 1.4999998,0.49999981 0 1 1 2.999999,0 z"
       id="path3804"
       style="fill:#2e5c02;fill-opacity:1;fill-rule:evenodd;stroke:none" />
    <path
       d="m 8.0000013,29.489856 a 1.4999998,0.49999981 0 1 1 -2.9999995,0 1.4999998,0.49999981 0 1 1 2.9999995,0 z"
       id="path3806"
       style="fill:#2e5c02;fill-opacity:1;fill-rule:evenodd;stroke:none" />
  </g>
  <g
     transform="translate(2.0001589,-9)"
     id="g3808">
    <path
       d="m 5.491464,38.460922 24.008514,0 0,6.039078 -24.008514,0 0,-6.039078 z"
       id="path3810"
       style="fill:#4f7f21;fill-opacity:1;fill-rule:evenodd;stroke:#2e5c02;stroke-width:0.99999958;stroke-linejoin:round;stroke-miterlimit:4;stroke-opacity:1" />
    <path
       d="m 7.450819,32.494875 20.208675,0 1.839885,5.993972 -23.999394,0 1.950834,-5.993972 z"
       id="path3812"
       style="fill:#57ae06;fill-opacity:1;fill-rule:evenodd;stroke:#2e5c02;stroke-width:0.99999964;stroke-linejoin:round;stroke-miterlimit:4;stroke-opacity:1" />
    <rect
       width="23"
       height="1"
       x="6.0000005"
       y="41.989853"
       id="rect3814"
       style="fill:#2e5c02;fill-opacity:1;fill-rule:evenodd;stroke:none" />
    <rect
       width="23.000002"
       height="1"
       x="6.0000005"
       y="39.989853"
       id="rect3816"
       style="fill:#2e5c02;fill-opacity:1;fill-rule:evenodd;stroke:none" />
    <path
       d="m 8.218751,33.521104 -1.28125,3.9375 21.15625,0 -1.21875,-3.9375 -18.65625,0 z"
       id="path3818"
       style="opacity:0.25;fill:none;stroke:white;stroke-width:1;stroke-miterlimit:4;stroke-opacity:1" />
    <path
       d="m 22.999992,35.489859 a 4.9999945,1.4999994 0 1 1 -9.999989,0 4.9999945,1.4999994 0 1 1 9.999989,0 z"
       id="path3820"
       style="fill:#2e5c02;fill-opacity:1;fill-rule:evenodd;stroke:none" />
    <path
       d="m 10.999998,36.474386 a 1.5156058,0.49999988 0 0 1 -3.0312116,0 1.5156058,0.49999988 0 1 1 3.0312116,0 z"
       id="path3822"
       style="fill:#2e5c02;fill-opacity:1;fill-rule:evenodd;stroke:none" />
    <path
       d="m 27,36.489856 a 1.4999998,0.49999981 0 1 1 -2.999999,0 1.4999998,0.49999981 0 1 1 2.999999,0 z"
       id="path3824"
       style="fill:#2e5c02;fill-opacity:1;fill-rule:evenodd;stroke:none" />
    <path
       d="m 16.500001,32.511162 -1,5.625214 0,6.357927 5,0 0,-6.411754 -1.09375,-5.571387 -2.90625,0 z"
       id="path3826"
       style="fill:#d3d7cf;fill-opacity:1;fill-rule:evenodd;stroke:#555753;stroke-width:1.00000012;stroke-miterlimit:4;stroke-opacity:1;stroke-dasharray:none" />
    <rect
       width="4"
       height="5"
       x="16"
       y="38.989853"
       id="rect3828"
       style="fill:#888a85;fill-opacity:1;fill-rule:evenodd;stroke:none" />
    <rect
       width="4"
       height="5"
       x="16"
       y="38.989853"
       id="rect3830"
       style="fill:url(#linearGradient3836);fill-opacity:1;fill-rule:evenodd;stroke:none" />
    <path
       d="m 26,34.489856 a 1.4999998,0.49999981 0 1 1 -2.999999,0 1.4999998,0.49999981 0 1 1 2.999999,0 z"
       id="path3832"
       style="fill:#2e5c02;fill-opacity:1;fill-rule:evenodd;stroke:none" />
    <path
       d="m 12,34.489856 a 1.4999998,0.49999981 0 1 1 -2.9999992,0 1.4999998,0.49999981 0 1 1 2.9999992,0 z"
       id="path3834"
       style="fill:#2e5c02;fill-opacity:1;fill-rule:evenodd;stroke:none" />
  </g>
  <g
     transform="translate(-164.55861,-16.374087)"
     id="g7909" />
</svg>
