<?xml version="1.0" encoding="UTF-8" standalone="no"?>
<!-- Created with Inkscape (http://www.inkscape.org/) -->
<svg
   xmlns:dc="http://purl.org/dc/elements/1.1/"
   xmlns:cc="http://creativecommons.org/ns#"
   xmlns:rdf="http://www.w3.org/1999/02/22-rdf-syntax-ns#"
   xmlns:svg="http://www.w3.org/2000/svg"
   xmlns="http://www.w3.org/2000/svg"
   xmlns:xlink="http://www.w3.org/1999/xlink"
   xmlns:sodipodi="http://sodipodi.sourceforge.net/DTD/sodipodi-0.dtd"
   xmlns:inkscape="http://www.inkscape.org/namespaces/inkscape"
   version="1.0"
   width="48"
   height="48"
   id="svg3265"
   sodipodi:version="0.32"
   inkscape:version="0.46"
   sodipodi:docname="status_lock.svg"
   inkscape:output_extension="org.inkscape.output.svg.inkscape">
  <metadata
     id="metadata84">
    <rdf:RDF>
      <cc:Work
         rdf:about="">
        <dc:format>image/svg+xml</dc:format>
        <dc:type
           rdf:resource="http://purl.org/dc/dcmitype/StillImage" />
      </cc:Work>
    </rdf:RDF>
  </metadata>
  <sodipodi:namedview
     inkscape:window-height="789"
     inkscape:window-width="1440"
     inkscape:pageshadow="2"
     inkscape:pageopacity="0.0"
     guidetolerance="10.0"
     gridtolerance="10.0"
     objecttolerance="10.0"
     borderopacity="1.0"
     bordercolor="#666666"
     pagecolor="#ffffff"
     id="base"
     showgrid="false"
     inkscape:zoom="8.5442069"
     inkscape:cx="9.0192109"
     inkscape:cy="28.418224"
     inkscape:window-x="0"
     inkscape:window-y="24"
     inkscape:current-layer="svg3265" />
  <defs
     id="defs3267">
    <linearGradient
       id="linearGradient3437">
      <stop
         id="stop3439"
         style="stop-color:#000000;stop-opacity:1"
         offset="0" />
      <stop
         id="stop3441"
         style="stop-color:#000000;stop-opacity:0"
         offset="1" />
    </linearGradient>
    <linearGradient
       id="linearGradient3257">
      <stop
         id="stop3259"
         style="stop-color:#957747;stop-opacity:1"
         offset="0" />
      <stop
         id="stop3261"
         style="stop-color:#ae8c56;stop-opacity:1"
         offset="1" />
    </linearGradient>
    <linearGradient
       id="linearGradient2411">
      <stop
         id="stop2413"
         style="stop-color:#fee7b1;stop-opacity:1"
         offset="0" />
      <stop
         id="stop2419"
         style="stop-color:#ebd4b4;stop-opacity:1"
         offset="0.25796592" />
      <stop
         id="stop2421"
         style="stop-color:#c8a775;stop-opacity:1"
         offset="0.50796592" />
      <stop
         id="stop2423"
         style="stop-color:#ebd4b4;stop-opacity:1;"
         offset="0.74009573" />
      <stop
         id="stop2415"
         style="stop-color:#c2a65e;stop-opacity:1;"
         offset="1" />
    </linearGradient>
    <linearGradient
       id="linearGradient9845">
      <stop
         id="stop9847"
         style="stop-color:#ffffff;stop-opacity:1"
         offset="0" />
      <stop
         id="stop9849"
         style="stop-color:#ffffff;stop-opacity:0.49484536"
         offset="1" />
    </linearGradient>
    <linearGradient
       id="linearGradient5881">
      <stop
         id="stop5883"
         style="stop-color:#d6c8a7;stop-opacity:1"
         offset="0" />
      <stop
         id="stop5885"
         style="stop-color:#d0bd99;stop-opacity:1"
         offset="1" />
    </linearGradient>
    <linearGradient
       id="linearGradient12071">
      <stop
         id="stop12073"
         style="stop-color:#ffffff;stop-opacity:1"
         offset="0" />
      <stop
         id="stop12075"
         style="stop-color:#ffffff;stop-opacity:0"
         offset="1" />
    </linearGradient>
    <filter
       x="-0.49411765"
       width="1.9882354"
       y="-0.082352944"
       height="1.1647059"
       id="filter5957">
      <feGaussianBlur
         inkscape:collect="always"
         stdDeviation="0.69878785"
         id="feGaussianBlur5959" />
    </filter>
    <linearGradient
       id="linearGradient6075">
      <stop
         id="stop6077"
         style="stop-color:#000000;stop-opacity:1"
         offset="0" />
      <stop
         id="stop6079"
         style="stop-color:#000000;stop-opacity:0"
         offset="1" />
    </linearGradient>
    <filter
       x="-0.24242526"
       width="1.4848505"
       y="-0.047579072"
       height="1.0951581"
       id="filter6251">
      <feGaussianBlur
         inkscape:collect="always"
         stdDeviation="0.24444548"
         id="feGaussianBlur6253" />
    </filter>
    <linearGradient
       id="linearGradient6227">
      <stop
         id="stop6229"
         style="stop-color:#000000;stop-opacity:1"
         offset="0" />
      <stop
         id="stop6231"
         style="stop-color:#000000;stop-opacity:0"
         offset="1" />
    </linearGradient>
    <linearGradient
       id="linearGradient10591">
      <stop
         id="stop10593"
         style="stop-color:#cad0c6;stop-opacity:1"
         offset="0" />
      <stop
         id="stop10599"
         style="stop-color:#eaece9;stop-opacity:1"
         offset="0.5" />
      <stop
         id="stop10595"
         style="stop-color:#c5cbc0;stop-opacity:1"
         offset="1" />
    </linearGradient>
    <filter
       id="filter5745">
      <feGaussianBlur
         inkscape:collect="always"
         stdDeviation="0.8362597"
         id="feGaussianBlur5747" />
    </filter>
    <linearGradient
       id="linearGradient6057">
      <stop
         id="stop6059"
         style="stop-color:#ffffff;stop-opacity:1"
         offset="0" />
      <stop
         id="stop6061"
         style="stop-color:#ffffff;stop-opacity:0"
         offset="1" />
    </linearGradient>
    <linearGradient
       inkscape:collect="always"
       xlink:href="#linearGradient10591"
       id="linearGradient3322"
       gradientUnits="userSpaceOnUse"
       gradientTransform="translate(0,-1.926279)"
       x1="10.650842"
       y1="2.9136841"
       x2="27.192274"
       y2="17.470011" />
    <linearGradient
       inkscape:collect="always"
       xlink:href="#linearGradient6227"
       id="linearGradient3324"
       gradientUnits="userSpaceOnUse"
       gradientTransform="translate(1.6824037,1.125)"
       x1="35.004684"
       y1="14.849737"
       x2="33.004314"
       y2="14.849737" />
    <linearGradient
       inkscape:collect="always"
       xlink:href="#linearGradient6227"
       id="linearGradient3326"
       gradientUnits="userSpaceOnUse"
       gradientTransform="translate(-19.532826,1.7437184)"
       x1="32.128025"
       y1="13.789077"
       x2="35.020981"
       y2="13.789077" />
    <radialGradient
       inkscape:collect="always"
       xlink:href="#linearGradient6057"
       id="radialGradient3328"
       gradientUnits="userSpaceOnUse"
       cx="18.031223"
       cy="6.2806997"
       fx="18.031223"
       fy="6.2806997"
       r="3.1819806" />
    <radialGradient
       inkscape:collect="always"
       xlink:href="#linearGradient6075"
       id="radialGradient3339"
       gradientUnits="userSpaceOnUse"
       gradientTransform="matrix(1.3870968,0,0,0.8113208,10.987903,1.9296697)"
       cx="15.9375"
       cy="20.3125"
       fx="15.9375"
       fy="20.3125"
       r="3.3125" />
    <radialGradient
       inkscape:collect="always"
       xlink:href="#linearGradient6075"
       id="radialGradient3342"
       gradientUnits="userSpaceOnUse"
       gradientTransform="matrix(1.3870968,0,0,0.8113208,-7.0120971,1.9296697)"
       cx="15.9375"
       cy="20.3125"
       fx="15.9375"
       fy="20.3125"
       r="3.3125" />
    <linearGradient
       inkscape:collect="always"
       xlink:href="#linearGradient12071"
       id="linearGradient3346"
       gradientUnits="userSpaceOnUse"
       gradientTransform="matrix(0.9413543,0,0,0.7755502,1.4105206,6.2414233)"
       x1="21.941509"
       y1="21.550869"
       x2="21.941509"
       y2="18.037588" />
    <linearGradient
       inkscape:collect="always"
       xlink:href="#linearGradient5881"
       id="linearGradient3349"
       gradientUnits="userSpaceOnUse"
       gradientTransform="matrix(0.9422167,0,0,1.5,1.3898222,-9.4028767)"
       x1="24.875"
       y1="21"
       x2="24.75"
       y2="17" />
    <linearGradient
       inkscape:collect="always"
       xlink:href="#linearGradient9845"
       id="linearGradient3352"
       gradientUnits="userSpaceOnUse"
       gradientTransform="matrix(0.9405192,0,0,1.1176137,1.4447998,-5.9978884)"
       x1="10.907269"
       y1="25.002281"
       x2="30.875446"
       y2="36.127281" />
    <linearGradient
       inkscape:collect="always"
       xlink:href="#linearGradient2411"
       id="linearGradient3365"
       gradientUnits="userSpaceOnUse"
       gradientTransform="matrix(0.943025,0,0,1.1298556,1.3703378,-7.8420138)"
       x1="6.72682"
       y1="32.161697"
       x2="40.938126"
       y2="32.161697" />
    <linearGradient
       inkscape:collect="always"
       xlink:href="#linearGradient3257"
       id="linearGradient3367"
       gradientUnits="userSpaceOnUse"
       x1="22.015385"
       y1="45"
       x2="22.015385"
       y2="13.996504" />
    <radialGradient
       inkscape:collect="always"
       xlink:href="#linearGradient3437"
       id="radialGradient3370"
       gradientUnits="userSpaceOnUse"
       gradientTransform="matrix(1.0196564,0,0,0.2039312,-0.935075,33.441752)"
       cx="24.45439"
       cy="46.869949"
       fx="24.45439"
       fy="46.869949"
       r="19.61445" />
    <radialGradient
       inkscape:collect="always"
       xlink:href="#linearGradient12071"
       id="radialGradient3374"
       cx="24"
       cy="21.822403"
       fx="24"
       fy="21.822403"
       r="17"
       gradientTransform="matrix(3.5913266e-8,0.5232304,-0.7982339,5.4788839e-8,41.419381,9.9685873)"
       gradientUnits="userSpaceOnUse" />
    <linearGradient
       inkscape:collect="always"
       xlink:href="#linearGradient10591"
       id="linearGradient3443"
       gradientUnits="userSpaceOnUse"
       gradientTransform="matrix(0.8563683,0,0,0.9968005,3.3880698,-4.3947632)"
       x1="10.650842"
       y1="2.9136841"
       x2="27.192274"
       y2="17.470011" />
  </defs>
  <path
     style="opacity:0.4;fill:url(#radialGradient3370);fill-opacity:1;stroke:none;stroke-width:0.46202838;stroke-linecap:butt;stroke-miterlimit:4;stroke-dasharray:none;stroke-dashoffset:0;stroke-opacity:1"
     id="path3435"
     d="M 44,43 C 44,45.209138 35.045694,47 24,47 C 12.954305,47 3.9999999,45.209138 3.9999999,43 C 3.9999999,40.790861 12.954305,38.999999 24,38.999999 C 35.045694,38.999999 44,40.790861 44,43 z" />
  <path
     style="fill:url(#linearGradient3365);fill-opacity:1;fill-rule:evenodd;stroke:url(#linearGradient3367);stroke-width:0.99999946;stroke-linecap:round;stroke-linejoin:round;stroke-miterlimit:4;stroke-dashoffset:0;stroke-opacity:1"
     id="rect1314"
     d="M 9.6076372,15.597122 C 19.114978,14.153723 28.723482,14.377806 38.392362,15.597122 C 39.559995,15.597122 40.5,16.640692 40.5,17.936966 L 40.5,41.257278 C 40.5,42.553552 39.499328,43.409622 38.392362,43.597122 C 28.368002,44.805725 19.772786,44.796184 9.6076372,43.597122 C 8.2580044,43.159622 7.5000002,42.553552 7.5000002,41.257278 L 7.5000002,17.936966 C 7.5000002,16.640692 8.4400063,15.597122 9.6076372,15.597122 z" />
  <path
     style="fill:url(#radialGradient3374);fill-opacity:1;fill-rule:evenodd;stroke:url(#linearGradient3367);stroke-width:0.99999945999999995;stroke-linecap:round;stroke-linejoin:round;stroke-miterlimit:4;stroke-dashoffset:0;stroke-opacity:1;opacity:0.6"
     id="path3372"
     d="M 9.6076372,15.597122 C 19.114978,14.153723 28.723482,14.377806 38.392362,15.597122 C 39.559995,15.597122 40.5,16.640692 40.5,17.936966 L 40.5,41.257278 C 40.5,42.553552 39.499328,43.409622 38.392362,43.597122 C 28.368002,44.805725 19.772786,44.796184 9.6076372,43.597122 C 8.2580044,43.159622 7.5000002,42.553552 7.5000002,41.257278 L 7.5000002,17.936966 C 7.5000002,16.640692 8.4400063,15.597122 9.6076372,15.597122 z" />
  <g
     id="g4695"
     transform="matrix(0.9706771,0,0,1,-0.7507553,-1.9028777)">
    <path
       style="opacity:0.14117647;fill:#000000;fill-opacity:1;fill-rule:evenodd;stroke:none;stroke-width:1;stroke-linecap:round;stroke-linejoin:miter;marker:none;marker-start:none;marker-mid:none;marker-end:none;stroke-miterlimit:4;stroke-dasharray:none;stroke-dashoffset:0;stroke-opacity:1;visibility:visible;display:inline;overflow:visible;enable-background:accumulate"
       id="path6193"
       d="M 41.940271,24.444505 C 41.542065,25.774817 37.406119,26.114917 36.638195,26.217936 C 36.638195,26.217936 20.32932,26.698408 20.32932,26.698408 C 20.32932,26.698408 36.59256,26.857542 36.59256,26.857542 C 37.418473,26.760419 41.811211,26.960931 42.02866,25.151612 L 41.940271,24.444505 z" />
    <path
       style="opacity:0.14117647;fill:#000000;fill-opacity:1;fill-rule:evenodd;stroke:none;stroke-width:1;stroke-linecap:round;stroke-linejoin:miter;marker:none;marker-start:none;marker-mid:none;marker-end:none;stroke-miterlimit:4;stroke-dasharray:none;stroke-dashoffset:0;stroke-opacity:1;visibility:visible;display:inline;overflow:visible;enable-background:accumulate"
       id="path4678"
       d="M 41.940271,26.444505 C 41.542065,27.774817 37.406119,28.114917 36.638195,28.217936 C 36.638195,28.217936 17.57932,28.698408 17.57932,28.698408 C 17.57932,28.698408 36.59256,28.857542 36.59256,28.857542 C 37.418473,28.760419 41.811211,28.960931 42.02866,27.151612 L 41.940271,26.444505 z" />
    <path
       style="opacity:0.14117647;fill:#000000;fill-opacity:1;fill-rule:evenodd;stroke:none;stroke-width:1;stroke-linecap:round;stroke-linejoin:miter;marker:none;marker-start:none;marker-mid:none;marker-end:none;stroke-miterlimit:4;stroke-dasharray:none;stroke-dashoffset:0;stroke-opacity:1;visibility:visible;display:inline;overflow:visible;enable-background:accumulate"
       id="path4680"
       d="M 41.940271,28.444505 C 41.542065,29.774817 37.406119,30.114917 36.638195,30.217936 C 36.638195,30.217936 20.32932,30.698408 20.32932,30.698408 C 20.32932,30.698408 36.59256,30.857542 36.59256,30.857542 C 37.418473,30.760419 41.811211,30.960931 42.02866,29.151612 L 41.940271,28.444505 z" />
    <path
       style="opacity:0.14117647;fill:#000000;fill-opacity:1;fill-rule:evenodd;stroke:none;stroke-width:1;stroke-linecap:round;stroke-linejoin:miter;marker:none;marker-start:none;marker-mid:none;marker-end:none;stroke-miterlimit:4;stroke-dasharray:none;stroke-dashoffset:0;stroke-opacity:1;visibility:visible;display:inline;overflow:visible;enable-background:accumulate"
       id="path4682"
       d="M 41.940271,30.444505 C 41.542065,31.774817 37.406119,32.114917 36.638195,32.217936 C 36.638195,32.217936 25.57932,32.698408 25.57932,32.698408 C 25.57932,32.698408 36.59256,32.857542 36.59256,32.857542 C 37.418473,32.760419 41.811211,32.960931 42.02866,31.151612 L 41.940271,30.444505 z" />
    <path
       style="opacity:0.14117647;fill:#000000;fill-opacity:1;fill-rule:evenodd;stroke:none;stroke-width:1;stroke-linecap:round;stroke-linejoin:miter;marker:none;marker-start:none;marker-mid:none;marker-end:none;stroke-miterlimit:4;stroke-dasharray:none;stroke-dashoffset:0;stroke-opacity:1;visibility:visible;display:inline;overflow:visible;enable-background:accumulate"
       id="path4684"
       d="M 41.940271,32.444505 C 41.542065,33.774817 37.406119,34.114917 36.638195,34.217936 C 36.638195,34.217936 20.32932,34.698408 20.32932,34.698408 C 20.32932,34.698408 36.59256,34.857542 36.59256,34.857542 C 37.418473,34.760419 41.811211,34.960931 42.02866,33.151612 L 41.940271,32.444505 z" />
    <path
       style="opacity:0.14117647;fill:#000000;fill-opacity:1;fill-rule:evenodd;stroke:none;stroke-width:1;stroke-linecap:round;stroke-linejoin:miter;marker:none;marker-start:none;marker-mid:none;marker-end:none;stroke-miterlimit:4;stroke-dasharray:none;stroke-dashoffset:0;stroke-opacity:1;visibility:visible;display:inline;overflow:visible;enable-background:accumulate"
       id="path4686"
       d="M 41.940271,34.444505 C 41.542065,35.774817 37.406119,36.114917 36.638195,36.217936 C 36.638195,36.217936 17.89182,36.698408 17.89182,36.698408 C 17.89182,36.698408 36.59256,36.857542 36.59256,36.857542 C 37.418473,36.760419 41.811211,36.960931 42.02866,35.151612 L 41.940271,34.444505 z" />
    <path
       style="opacity:0.14117647;fill:#000000;fill-opacity:1;fill-rule:evenodd;stroke:none;stroke-width:1;stroke-linecap:round;stroke-linejoin:miter;marker:none;marker-start:none;marker-mid:none;marker-end:none;stroke-miterlimit:4;stroke-dasharray:none;stroke-dashoffset:0;stroke-opacity:1;visibility:visible;display:inline;overflow:visible;enable-background:accumulate"
       id="path4688"
       d="M 41.940271,36.444505 C 41.542065,37.774817 37.406119,38.114917 36.638195,38.217936 C 36.638195,38.217936 22.64182,38.698408 22.64182,38.698408 C 22.64182,38.698408 36.59256,38.857542 36.59256,38.857542 C 37.418473,38.760419 41.811211,38.960931 42.02866,37.151612 L 41.940271,36.444505 z" />
    <path
       style="opacity:0.14117647;fill:#000000;fill-opacity:1;fill-rule:evenodd;stroke:none;stroke-width:1;stroke-linecap:round;stroke-linejoin:miter;marker:none;marker-start:none;marker-mid:none;marker-end:none;stroke-miterlimit:4;stroke-dasharray:none;stroke-dashoffset:0;stroke-opacity:1;visibility:visible;display:inline;overflow:visible;enable-background:accumulate"
       id="path4690"
       d="M 41.940271,38.444505 C 41.542065,39.774817 37.406119,40.114917 36.638195,40.217936 C 36.638195,40.217936 28.20432,40.698408 28.20432,40.698408 C 28.20432,40.698408 36.59256,40.857542 36.59256,40.857542 C 37.418473,40.760419 41.811211,40.960931 42.02866,39.151612 L 41.940271,38.444505 z" />
    <path
       style="opacity:0.14117647;fill:#000000;fill-opacity:1;fill-rule:evenodd;stroke:none;stroke-width:1;stroke-linecap:round;stroke-linejoin:miter;marker:none;marker-start:none;marker-mid:none;marker-end:none;stroke-miterlimit:4;stroke-dasharray:none;stroke-dashoffset:0;stroke-opacity:1;visibility:visible;display:inline;overflow:visible;enable-background:accumulate"
       id="path4692"
       d="M 41.940271,40.444505 C 41.542065,41.774817 37.406119,42.114917 36.638195,42.217936 C 36.638195,42.217936 20.32932,42.698408 20.32932,42.698408 C 20.32932,42.698408 36.59256,42.857542 36.59256,42.857542 C 37.418473,42.760419 41.811211,42.960931 42.02866,41.151612 L 41.940271,40.444505 z" />
  </g>
  <path
     style="opacity:0.37999998;fill:none;fill-opacity:1;fill-rule:evenodd;stroke:url(#linearGradient3352);stroke-width:1.00000024;stroke-linecap:round;stroke-linejoin:round;stroke-miterlimit:4;stroke-dashoffset:0;stroke-opacity:0.60109289"
     id="rect6903"
     d="M 9.6836237,17.092483 L 38.323301,17.092483 C 38.995272,17.092483 39.536247,17.678598 39.536247,18.406642 L 39.536247,41.282963 C 39.536247,42.011007 39.05594,42.347122 38.323301,42.597122 C 28.958745,43.800735 19.715521,43.797943 9.6836237,42.597122 C 9.0116511,42.347122 8.4706773,42.011007 8.4706773,41.282963 L 8.4706773,18.406642 C 8.4706773,17.678598 9.0116511,17.092483 9.6836237,17.092483 z" />
  <path
     style="fill:url(#linearGradient3349);fill-opacity:1;fill-rule:evenodd;stroke:none;stroke-width:2;stroke-linecap:round;stroke-linejoin:round;marker:none;marker-start:none;marker-mid:none;marker-end:none;stroke-miterlimit:4;stroke-dashoffset:0;stroke-opacity:1;visibility:visible;display:inline;overflow:visible"
     id="rect1460"
     d="M 9.545921,16.097122 C 19.183989,14.636375 28.822055,14.896553 38.460124,16.097122 C 39.324686,16.097122 40.020707,16.814168 40.020707,17.704847 L 40.020707,20.489397 C 40.020707,21.380076 39.324686,22.097122 38.460124,22.097122 C 28.402231,22.787222 19.148089,22.540932 9.545921,22.097122 C 8.6813588,22.097122 7.9853391,21.380076 7.9853391,20.489397 L 7.9853391,17.704847 C 7.9853391,16.814168 8.6813588,16.097122 9.545921,16.097122 z" />
  <path
     style="opacity:0.6;fill:none;fill-opacity:1;fill-rule:evenodd;stroke:url(#linearGradient3346);stroke-width:1;stroke-linecap:round;stroke-linejoin:round;marker:none;marker-start:none;marker-mid:none;marker-end:none;stroke-miterlimit:4;stroke-dashoffset:0;stroke-opacity:1;visibility:visible;display:inline;overflow:visible"
     id="rect1593"
     d="M 9.6004853,19.813555 L 38.405562,19.813555 C 39.031475,19.813555 39.535371,20.21211 39.535371,20.707178 L 39.535371,21.246583 C 39.535371,21.74165 39.031475,22.140206 38.405562,22.140206 C 28.893476,23.117928 19.273933,23.177761 9.6004853,22.140206 C 8.9745713,22.140206 8.4706773,21.74165 8.4706773,21.246583 L 8.4706773,20.707178 C 8.4706773,20.21211 8.9745713,19.813555 9.6004853,19.813555 z" />
  <rect
     style="opacity:0.2;fill:#ffffff;fill-opacity:1;fill-rule:evenodd;stroke:none;stroke-width:1;stroke-linecap:round;stroke-linejoin:miter;marker:none;marker-start:none;marker-mid:none;marker-end:none;stroke-miterlimit:4;stroke-dasharray:none;stroke-dashoffset:0;stroke-opacity:1;visibility:visible;display:inline;overflow:visible;filter:url(#filter5957);enable-background:accumulate"
     id="rect5887"
     transform="matrix(1.9144392,0,0,1.2283366,-15.858733,-7.2062543)"
     y="23.226137"
     x="14.594036"
     ry="1.6077254"
     rx="1.6077254"
     height="16.970562"
     width="2.8284271" />
  <path
     style="opacity:0.3;fill:url(#radialGradient3342);fill-opacity:1;fill-rule:evenodd;stroke:none;stroke-width:1;stroke-linecap:round;stroke-linejoin:miter;marker:none;marker-start:none;marker-mid:none;marker-end:none;stroke-miterlimit:4;stroke-dasharray:none;stroke-dashoffset:0;stroke-opacity:1;visibility:visible;display:inline;overflow:visible;enable-background:accumulate"
     id="path6073"
     d="M 19.689516,18.409623 C 19.689516,19.893889 17.632372,21.097123 15.094758,21.097123 C 12.557143,21.097123 10.5,19.893889 10.5,18.409623 C 10.5,16.925357 12.557143,15.722123 15.094758,15.722123 C 17.632372,15.722123 19.689516,16.925357 19.689516,18.409623 z" />
  <path
     style="opacity:0.3;fill:url(#radialGradient3339);fill-opacity:1;fill-rule:evenodd;stroke:none;stroke-width:1;stroke-linecap:round;stroke-linejoin:miter;marker:none;marker-start:none;marker-mid:none;marker-end:none;stroke-miterlimit:4;stroke-dasharray:none;stroke-dashoffset:0;stroke-opacity:1;visibility:visible;display:inline;overflow:visible;enable-background:accumulate"
     id="path6083"
     d="M 37.689516,18.409623 C 37.689516,19.893889 35.632373,21.097123 33.094758,21.097123 C 30.557144,21.097123 28.5,19.893889 28.5,18.409623 C 28.5,16.925357 30.557144,15.722123 33.094758,15.722123 C 35.632373,15.722123 37.689516,16.925357 37.689516,18.409623 z" />
  <path
     d="M 12.5,17.695457 L 12.5,11.97896 C 12.5,4.134007 17.002278,0.40710952 23.958059,0.50508056 C 30.951688,0.6030517 35.501881,4.0417149 35.501881,11.97896 L 35.501881,17.944657 C 35.501881,19.892634 30.799819,20.14056 30.799819,17.944657 L 30.799819,13.972561 C 30.799819,11.97896 31.286624,5.5278136 24.007056,5.5278136 C 16.787517,5.5278136 17.313553,12.018717 17.341548,13.964612 L 17.341548,17.729028 C 17.341548,20.076114 12.5,20.066135 12.5,17.695457 z"
     id="path2086"
     style="fill:url(#linearGradient3443);fill-opacity:1;fill-rule:evenodd;stroke:#888a85;stroke-width:0.99999952;stroke-linecap:butt;stroke-linejoin:miter;stroke-miterlimit:4;stroke-dasharray:none;stroke-opacity:1" />
  <path
     d="M 34.687087,10.837069 L 35.951035,10.962069 C 36.878274,13.784802 36.687087,20.472482 36.687087,20.472482 C 36.624587,21.597482 34.655837,21.003732 34.687087,20.472482 L 34.687087,10.837069 z"
     id="rect1345"
     style="opacity:0.18235294;fill:url(#linearGradient3324);fill-opacity:1;fill-rule:evenodd;stroke:none;stroke-width:1;stroke-linecap:round;stroke-linejoin:round;stroke-miterlimit:4;stroke-dashoffset:0;stroke-opacity:1;filter:url(#filter6251)"
     transform="matrix(0.8563683,0,0,0.9968005,3.3880698,-2.4746473)" />
  <path
     d="M 12.926606,11.544175 L 13.298325,11.71337 C 15.018656,12.768336 15.471857,21.0912 15.471857,21.0912 C 15.409357,22.2162 13.440607,21.62245 13.471857,21.0912 C 13.471857,21.0912 13.850077,14.22056 12.926606,11.544175 z"
     transform="matrix(-0.8563683,0,0,0.9968005,28.273088,-3.0913861)"
     id="path6332"
     style="opacity:0.14117647;fill:url(#linearGradient3326);fill-opacity:1;fill-rule:evenodd;stroke:none;stroke-width:1;stroke-linecap:round;stroke-linejoin:round;stroke-miterlimit:4;stroke-dashoffset:0;stroke-opacity:1;filter:url(#filter6251)" />
  <path
     style="opacity:0.62352941;fill:none;fill-opacity:1;fill-rule:evenodd;stroke:#ffffff;stroke-width:2.0439775;stroke-linecap:round;stroke-linejoin:miter;marker:none;marker-start:none;marker-mid:none;marker-end:none;stroke-miterlimit:4;stroke-dasharray:none;stroke-dashoffset:0;stroke-opacity:1;visibility:visible;display:inline;overflow:visible;filter:url(#filter5745);enable-background:accumulate"
     id="path5675"
     transform="matrix(0.9605048,0,0,0.9968005,0.9443375,-8.7389207e-2)"
     d="M 13.876557,17.722122 L 14.001556,10.222122 C 14.001556,0.3457492 32.689056,-0.454278 32.689056,11.097122 L 32.689056,17.972122" />
  <g
     id="g6067"
     transform="matrix(0.9605048,0,0,0.9968005,0.3540496,-2.5128119)">
    <path
       style="opacity:1;fill:url(#radialGradient3328);fill-opacity:1;fill-rule:evenodd;stroke:none;stroke-width:1;stroke-linecap:round;stroke-linejoin:miter;marker:none;marker-start:none;marker-mid:none;marker-end:none;stroke-miterlimit:4;stroke-dasharray:none;stroke-dashoffset:0;stroke-opacity:1;visibility:visible;display:inline;overflow:visible;enable-background:accumulate"
       id="path6055"
       d="M 21.213204,6.2806997 C 21.213645,8.0383706 19.788894,9.463478 18.031223,9.463478 C 16.273553,9.463478 14.848802,8.0383706 14.849243,6.2806997 C 14.848802,4.5230288 16.273553,3.0979214 18.031223,3.0979214 C 19.788894,3.0979214 21.213645,4.5230288 21.213204,6.2806997 L 21.213204,6.2806997 z" />
    <path
       style="opacity:1;fill:#ffffff;fill-opacity:1;fill-rule:evenodd;stroke:none;stroke-width:1;stroke-linecap:round;stroke-linejoin:miter;marker:none;marker-start:none;marker-mid:none;marker-end:none;stroke-miterlimit:4;stroke-dasharray:none;stroke-dashoffset:0;stroke-opacity:1;visibility:visible;display:inline;overflow:visible;enable-background:accumulate"
       id="path6065"
       transform="matrix(0.4343344,0,0,0.4343344,10.199642,3.5527756)"
       d="M 21.213204,6.2806997 C 21.213645,8.0383706 19.788894,9.463478 18.031223,9.463478 C 16.273553,9.463478 14.848802,8.0383706 14.849243,6.2806997 C 14.848802,4.5230288 16.273553,3.0979214 18.031223,3.0979214 C 19.788894,3.0979214 21.213645,4.5230288 21.213204,6.2806997 L 21.213204,6.2806997 z" />
  </g>
  <g
     id="g3380"
     transform="matrix(0.9706771,0,0,1,-0.7507553,-0.857542)"
     style="fill:#ffffff">
    <path
       style="opacity:0.14117647000000000;fill:#ffffff;fill-opacity:1;fill-rule:evenodd;stroke:none;stroke-width:1;stroke-linecap:round;stroke-linejoin:miter;marker:none;marker-start:none;marker-mid:none;marker-end:none;stroke-miterlimit:4;stroke-dasharray:none;stroke-dashoffset:0;stroke-opacity:1;visibility:visible;display:inline;overflow:visible;enable-background:accumulate"
       id="path3382"
       d="M 41.940271,24.444505 C 41.542065,25.774817 37.406119,26.114917 36.638195,26.217936 C 36.638195,26.217936 20.32932,26.698408 20.32932,26.698408 C 20.32932,26.698408 36.59256,26.857542 36.59256,26.857542 C 37.418473,26.760419 41.811211,26.960931 42.02866,25.151612 L 41.940271,24.444505 z" />
    <path
       style="opacity:0.14117647000000000;fill:#ffffff;fill-opacity:1;fill-rule:evenodd;stroke:none;stroke-width:1;stroke-linecap:round;stroke-linejoin:miter;marker:none;marker-start:none;marker-mid:none;marker-end:none;stroke-miterlimit:4;stroke-dasharray:none;stroke-dashoffset:0;stroke-opacity:1;visibility:visible;display:inline;overflow:visible;enable-background:accumulate"
       id="path3384"
       d="M 41.940271,26.444505 C 41.542065,27.774817 37.406119,28.114917 36.638195,28.217936 C 36.638195,28.217936 17.57932,28.698408 17.57932,28.698408 C 17.57932,28.698408 36.59256,28.857542 36.59256,28.857542 C 37.418473,28.760419 41.811211,28.960931 42.02866,27.151612 L 41.940271,26.444505 z" />
    <path
       style="opacity:0.14117647000000000;fill:#ffffff;fill-opacity:1;fill-rule:evenodd;stroke:none;stroke-width:1;stroke-linecap:round;stroke-linejoin:miter;marker:none;marker-start:none;marker-mid:none;marker-end:none;stroke-miterlimit:4;stroke-dasharray:none;stroke-dashoffset:0;stroke-opacity:1;visibility:visible;display:inline;overflow:visible;enable-background:accumulate"
       id="path3386"
       d="M 41.940271,28.444505 C 41.542065,29.774817 37.406119,30.114917 36.638195,30.217936 C 36.638195,30.217936 20.32932,30.698408 20.32932,30.698408 C 20.32932,30.698408 36.59256,30.857542 36.59256,30.857542 C 37.418473,30.760419 41.811211,30.960931 42.02866,29.151612 L 41.940271,28.444505 z" />
    <path
       style="opacity:0.14117647000000000;fill:#ffffff;fill-opacity:1;fill-rule:evenodd;stroke:none;stroke-width:1;stroke-linecap:round;stroke-linejoin:miter;marker:none;marker-start:none;marker-mid:none;marker-end:none;stroke-miterlimit:4;stroke-dasharray:none;stroke-dashoffset:0;stroke-opacity:1;visibility:visible;display:inline;overflow:visible;enable-background:accumulate"
       id="path3388"
       d="M 41.940271,30.444505 C 41.542065,31.774817 37.406119,32.114917 36.638195,32.217936 C 36.638195,32.217936 25.57932,32.698408 25.57932,32.698408 C 25.57932,32.698408 36.59256,32.857542 36.59256,32.857542 C 37.418473,32.760419 41.811211,32.960931 42.02866,31.151612 L 41.940271,30.444505 z" />
    <path
       style="opacity:0.14117647000000000;fill:#ffffff;fill-opacity:1;fill-rule:evenodd;stroke:none;stroke-width:1;stroke-linecap:round;stroke-linejoin:miter;marker:none;marker-start:none;marker-mid:none;marker-end:none;stroke-miterlimit:4;stroke-dasharray:none;stroke-dashoffset:0;stroke-opacity:1;visibility:visible;display:inline;overflow:visible;enable-background:accumulate"
       id="path3390"
       d="M 41.940271,32.444505 C 41.542065,33.774817 37.406119,34.114917 36.638195,34.217936 C 36.638195,34.217936 20.32932,34.698408 20.32932,34.698408 C 20.32932,34.698408 36.59256,34.857542 36.59256,34.857542 C 37.418473,34.760419 41.811211,34.960931 42.02866,33.151612 L 41.940271,32.444505 z" />
    <path
       style="opacity:0.14117647000000000;fill:#ffffff;fill-opacity:1;fill-rule:evenodd;stroke:none;stroke-width:1;stroke-linecap:round;stroke-linejoin:miter;marker:none;marker-start:none;marker-mid:none;marker-end:none;stroke-miterlimit:4;stroke-dasharray:none;stroke-dashoffset:0;stroke-opacity:1;visibility:visible;display:inline;overflow:visible;enable-background:accumulate"
       id="path3392"
       d="M 41.940271,34.444505 C 41.542065,35.774817 37.406119,36.114917 36.638195,36.217936 C 36.638195,36.217936 17.89182,36.698408 17.89182,36.698408 C 17.89182,36.698408 36.59256,36.857542 36.59256,36.857542 C 37.418473,36.760419 41.811211,36.960931 42.02866,35.151612 L 41.940271,34.444505 z" />
    <path
       style="opacity:0.14117647000000000;fill:#ffffff;fill-opacity:1;fill-rule:evenodd;stroke:none;stroke-width:1;stroke-linecap:round;stroke-linejoin:miter;marker:none;marker-start:none;marker-mid:none;marker-end:none;stroke-miterlimit:4;stroke-dasharray:none;stroke-dashoffset:0;stroke-opacity:1;visibility:visible;display:inline;overflow:visible;enable-background:accumulate"
       id="path3394"
       d="M 41.940271,36.444505 C 41.542065,37.774817 37.406119,38.114917 36.638195,38.217936 C 36.638195,38.217936 22.64182,38.698408 22.64182,38.698408 C 22.64182,38.698408 36.59256,38.857542 36.59256,38.857542 C 37.418473,38.760419 41.811211,38.960931 42.02866,37.151612 L 41.940271,36.444505 z" />
    <path
       style="opacity:0.14117647000000000;fill:#ffffff;fill-opacity:1;fill-rule:evenodd;stroke:none;stroke-width:1;stroke-linecap:round;stroke-linejoin:miter;marker:none;marker-start:none;marker-mid:none;marker-end:none;stroke-miterlimit:4;stroke-dasharray:none;stroke-dashoffset:0;stroke-opacity:1;visibility:visible;display:inline;overflow:visible;enable-background:accumulate"
       id="path3396"
       d="M 41.940271,38.444505 C 41.542065,39.774817 37.406119,40.114917 36.638195,40.217936 C 36.638195,40.217936 28.20432,40.698408 28.20432,40.698408 C 28.20432,40.698408 36.59256,40.857542 36.59256,40.857542 C 37.418473,40.760419 41.811211,40.960931 42.02866,39.151612 L 41.940271,38.444505 z" />
    <path
       style="opacity:0.14117647000000000;fill:#ffffff;fill-opacity:1;fill-rule:evenodd;stroke:none;stroke-width:1;stroke-linecap:round;stroke-linejoin:miter;marker:none;marker-start:none;marker-mid:none;marker-end:none;stroke-miterlimit:4;stroke-dasharray:none;stroke-dashoffset:0;stroke-opacity:1;visibility:visible;display:inline;overflow:visible;enable-background:accumulate"
       id="path3398"
       d="M 41.940271,40.444505 C 41.542065,41.774817 37.406119,42.114917 36.638195,42.217936 C 36.638195,42.217936 20.32932,42.698408 20.32932,42.698408 C 20.32932,42.698408 36.59256,42.857542 36.59256,42.857542 C 37.418473,42.760419 41.811211,42.960931 42.02866,41.151612 L 41.940271,40.444505 z" />
  </g>
</svg>
