<svg xmlns="http://www.w3.org/2000/svg" viewBox="0 0 64 64">
 <path d="m 14.512 27.5 -3.01 11 -11 3.01 11 2.988 3.01 11 2.988 -11 l 11 -2.988 -11 -3.01" style="fill:#e2b854;fill-opacity:1;stroke:none;fill-rule:nonzero"/>
 <path d="m 51.5 14.5 -2.88 9.12 -9.12 2.887 9.12 2.873 2.88 9.12 2.88 -9.12 9.12 -2.873 -9.12 -2.887" style="fill:#e2b854;fill-opacity:1;stroke:none;fill-rule:nonzero"/>
 <path d="m 39.5 0.5 -2 7 l -7 1.992 7 2.01 l 2 7 2 -7 l 7 -2.01 -7 -1.992" style="fill:#e2b854;fill-opacity:1;stroke:none;fill-rule:nonzero"/>
 <g transform="matrix(1.7771831,2.560937,-2.5380804,1.7931874,83.447242,8.7625052)">
  <path d="m -7.9 16 c -0.73 -0.001 -2.102 0.448 -2.101 1.6 c 0.001 1.183 1.37 1.6 2.101 1.6 l 14.801 0 c 0.886 0 1.6 -0.713 1.6 -1.6 0 -0.886 -0.713 -1.6 -1.6 -1.6 z" style="fill:#5c6982;opacity:1;fill-opacity:1;stroke:none"/>
  <path d="m -13.4 16 c -0.886 0 -1.6 0.713 -1.6 1.6 c 0 0.886 0.713 1.6 1.6 1.6 l 5.5 0 c -0.558 0 -1.1 -0.737 -1.1 -1.6 0 -0.863 0.557 -1.6 1.1 -1.599" style="fill:#c59da1;opacity:1;fill-opacity:1;stroke:none"/>
 </g>
</svg>
